<?xml version="1.0" standalone="no"?>
<!DOCTYPE svg PUBLIC "-//W3C//DTD SVG 20010904//EN"
 "http://www.w3.org/TR/2001/REC-SVG-20010904/DTD/svg10.dtd">
<svg version="1.0" xmlns="http://www.w3.org/2000/svg"
 width="512.000000pt" height="512.000000pt" viewBox="0 0 512.000000 512.000000"
 preserveAspectRatio="xMidYMid meet">
<metadata>
Created by potrace 1.14, written by Peter Selinger 2001-2017
</metadata>
<g transform="translate(0.000000,512.000000) scale(0.100000,-0.100000)"
fill="#000000" stroke="none">
<path d="M2433 3745 c-190 -44 -315 -171 -477 -485 -22 -41 -45 -84 -52 -94
-13 -19 -13 -19 -20 0 -4 10 -24 60 -45 111 -98 233 -190 350 -325 415 -76 36
-89 39 -192 43 -138 5 -251 -38 -348 -133 -105 -104 -121 -132 -513 -936 -135
-276 -167 -350 -177 -406 -3 -14 -9 -39 -13 -55 -9 -33 -6 -215 3 -252 3 -13
8 -33 11 -44 34 -159 153 -326 302 -427 40 -28 151 -80 182 -87 11 -3 29 -7
38 -9 10 -2 36 -8 58 -14 56 -12 219 -8 285 8 82 20 250 95 250 112 0 4 4 8
10 8 12 0 49 31 102 85 63 64 118 156 224 373 54 111 102 202 105 202 4 0 67
-152 74 -180 1 -3 6 -16 12 -30 6 -14 23 -54 38 -90 55 -132 140 -265 221
-346 102 -101 208 -146 354 -150 294 -10 484 162 655 591 15 39 33 84 40 100
7 17 18 47 25 68 6 20 16 37 21 37 11 0 43 -60 32 -60 -5 0 -3 -4 2 -8 6 -4
52 -91 103 -195 103 -211 127 -250 203 -324 68 -66 119 -102 189 -135 121 -57
206 -75 340 -73 167 3 310 55 442 161 114 92 204 231 244 379 32 122 24 298
-19 427 -32 92 -511 1060 -566 1143 -115 173 -242 253 -413 260 -101 4 -151
-5 -233 -44 -121 -56 -211 -163 -298 -357 -43 -95 -59 -135 -63 -153 -8 -39
-24 -25 -69 61 -167 321 -268 431 -450 493 -62 21 -222 27 -292 10z m199 -379
c29 -15 84 -74 103 -110 7 -11 27 -46 45 -76 54 -91 120 -219 120 -234 0 -8 4
-16 8 -18 5 -1 39 -65 77 -141 l68 -138 -38 -102 c-21 -56 -69 -183 -107 -282
-38 -99 -71 -184 -72 -190 -1 -5 -23 -53 -48 -106 -53 -108 -114 -191 -158
-214 -36 -19 -102 -19 -138 -1 -59 31 -136 147 -197 296 -14 36 -30 74 -35 85
-7 18 -76 197 -102 267 -6 15 -9 30 -8 34 1 4 -2 10 -7 13 -7 5 -49 113 -56
146 -2 6 -6 16 -11 23 -9 15 2 72 15 72 5 0 8 3 7 8 -3 13 34 92 43 92 5 0 8
3 7 8 -3 10 133 286 146 294 6 4 8 8 3 8 -4 0 4 18 18 40 14 22 25 44 25 50 0
5 4 10 9 10 5 0 12 11 15 25 4 14 11 25 16 25 6 0 10 6 10 13 1 17 67 87 99
103 34 18 109 18 143 0z m-1258 -32 c14 -15 40 -50 56 -79 33 -57 120 -263
120 -283 0 -7 4 -20 9 -30 15 -29 28 -63 62 -162 18 -52 37 -101 42 -107 6 -9
6 -13 -2 -13 -7 0 -10 -4 -7 -9 3 -5 -4 -20 -15 -35 -11 -14 -18 -26 -15 -26
2 0 -31 -70 -73 -155 -43 -85 -76 -157 -73 -160 3 -3 0 -5 -7 -5 -7 0 -10 -4
-6 -9 3 -5 0 -15 -7 -23 -7 -7 -14 -20 -16 -28 -2 -8 -8 -18 -14 -21 -5 -3
-10 -10 -9 -15 0 -15 -120 -259 -130 -262 -5 -2 -7 -7 -4 -11 7 -12 -93 -102
-142 -129 -24 -13 -43 -20 -43 -17 0 3 -6 3 -12 -2 -26 -16 -125 -22 -178 -11
-95 21 -231 136 -245 207 -2 11 -8 28 -14 39 -6 11 -9 61 -7 113 3 86 6 100
42 169 21 41 39 77 39 80 1 3 54 112 118 243 64 131 117 242 117 247 0 6 5 10
10 10 6 0 9 3 8 8 -3 8 162 344 173 352 3 3 9 15 13 28 4 12 12 22 17 22 5 0
9 5 9 12 0 6 18 28 39 50 50 49 103 53 145 12z m2517 -12 c21 -22 39 -44 39
-50 0 -7 3 -12 8 -12 4 0 12 -10 18 -23 5 -12 34 -67 63 -122 29 -55 53 -102
53 -105 2 -12 109 -224 119 -236 6 -8 9 -14 5 -14 -3 0 40 -91 95 -202 96
-192 148 -301 171 -358 59 -144 -19 -347 -162 -420 -87 -44 -207 -58 -259 -30
-12 6 -21 8 -21 5 0 -3 -21 6 -48 20 -101 53 -126 90 -321 487 -123 250 -181
378 -181 400 0 58 190 574 220 598 4 3 15 19 24 36 24 40 62 63 104 64 26 0
43 -9 73 -38z"/>
</g>
</svg>
